<?xml version="1.0" encoding="UTF-8" standalone="no"?><!DOCTYPE svg PUBLIC "-//W3C//DTD SVG 1.1//EN" "http://www.w3.org/Graphics/SVG/1.1/DTD/svg11.dtd"><svg width="100%" height="100%" viewBox="0 0 800 800" version="1.1" xmlns="http://www.w3.org/2000/svg" xmlns:xlink="http://www.w3.org/1999/xlink" xml:space="preserve" xmlns:serif="http://www.serif.com/" style="fill-rule:evenodd;clip-rule:evenodd;stroke-linejoin:round;stroke-miterlimit:2;"><path d="M399.021,19.895c220.953,0 398.854,144.189 398.854,323.28c0,87.22 -43.015,163.947 -110.476,224.413c-109.323,108.132 -297.68,217.455 -317.438,209.306c-32.559,-12.8 24.41,-82.569 1.154,-112.783c-3.498,-4.651 -16.298,-3.498 -39.554,-6.995c-191.855,-25.6 -329.085,-152.338 -329.085,-315.131c0,-179.092 176.747,-322.089 396.509,-322.089l0.037,-0Zm-226.72,430.222l67.462,0c11.647,0 18.605,-9.302 18.605,-20.949c0,-8.149 -5.805,-18.605 -20.949,-18.605l-54.661,0c-4.651,0 -4.651,-4.651 -4.651,-20.949l0,-117.435c0,-10.456 -6.995,-20.949 -19.758,-20.949c-11.647,0 -19.758,9.302 -19.758,20.949l0,141.882c0,31.405 15.107,36.056 33.712,36.056Zm152.3,-16.261l0,-161.64c0,-10.456 -8.149,-20.949 -20.949,-20.949c-10.456,0 -19.758,9.302 -19.758,20.949l0,161.64c0,10.456 8.149,18.605 20.949,18.605c10.456,0 19.758,-8.149 19.758,-18.605Zm190.701,-22.103l0,-141.882c0,-10.456 -8.149,-18.605 -20.949,-18.605c-9.302,0 -19.758,5.805 -19.758,18.605l0,102.327l-67.462,-94.178c-9.302,-16.298 -20.949,-26.754 -34.903,-26.754c-17.451,0 -18.605,13.954 -18.605,33.712l0,148.84c0,10.456 8.149,18.605 19.758,18.605c10.456,0 19.758,-6.995 19.758,-18.605l0,-105.825l67.462,94.178c15.107,19.758 18.605,30.252 37.21,30.252c12.8,0 17.451,-11.647 17.451,-40.708l0.037,0.037Zm130.235,-80.225l-59.313,0l0,-33.712c0,-3.498 1.154,-8.149 6.995,-8.149l52.317,0c12.8,0 20.949,-6.995 20.949,-19.758c0,-15.107 -11.647,-19.758 -22.103,-19.758l-67.462,0c-20.949,0 -31.405,13.954 -31.405,32.559l0,131.388c0,23.256 9.302,36.056 31.405,36.056l68.615,0c15.107,0 20.949,-9.302 20.949,-20.949c0,-15.107 -11.647,-19.758 -20.949,-19.758l-51.164,0c-4.651,0 -8.149,-3.498 -8.149,-6.995l0,-32.559l61.62,0c15.107,0 17.451,-11.647 17.451,-19.758c0,-11.647 -9.302,-18.605 -19.758,-18.605Z" style="fill-rule:nonzero;"/></svg>